HIERARCHY
ROOT mixamorig:Hips
{
	OFFSET 0.000000 201.639420 0.000000
	CHANNELS 6 Xposition Yposition Zposition Xrotation Yrotation Zrotation
	JOINT mixamorig:Spine
	{
		OFFSET 0.006200 19.524994 -2.481800
		CHANNELS 3 Xrotation Yrotation Zrotation
		JOINT mixamorig:Spine1
		{
			OFFSET -0.000900 22.835007 -2.825400
			CHANNELS 3 Xrotation Yrotation Zrotation
			JOINT mixamorig:Spine2
			{
				OFFSET -0.020600 26.552490 -3.193300
				CHANNELS 3 Xrotation Yrotation Zrotation
				JOINT mixamorig:Neck
				{
					OFFSET -0.060000 30.701813 1.352200
					CHANNELS 3 Xrotation Yrotation Zrotation
					JOINT mixamorig:Head
					{
						OFFSET -0.087200 22.547607 3.670900
						CHANNELS 3 Xrotation Yrotation Zrotation
						JOINT mixamorig:HeadTop_End
						{
							OFFSET -0.830600 40.355194 7.893500
							CHANNELS 3 Xrotation Yrotation Zrotation
							End Site
							{
								OFFSET 0.000000 30.592346 0.000000
							}
						}
						JOINT mixamorig:RightEye
						{
							OFFSET -6.302100 18.118591 16.197100
							CHANNELS 3 Xrotation Yrotation Zrotation
							End Site
							{
								OFFSET 0.000000 30.592346 0.000000
							}
						}
						JOINT mixamorig:LeftEye
						{
							OFFSET 6.741500 18.382690 16.401899
							CHANNELS 3 Xrotation Yrotation Zrotation
							End Site
							{
								OFFSET 0.000000 30.592346 0.000000
							}
						}
					}
				}
				JOINT mixamorig:LeftShoulder
				{
					OFFSET 11.924900 18.230499 1.425400
					CHANNELS 3 Xrotation Yrotation Zrotation
					JOINT mixamorig:LeftArm
					{
						OFFSET 25.435989 -0.697632 -5.229300
						CHANNELS 3 Xrotation Yrotation Zrotation
						JOINT mixamorig:LeftForeArm
						{
							OFFSET 54.684776 0.000000 0.000000
							CHANNELS 3 Xrotation Yrotation Zrotation
							JOINT mixamorig:LeftHand
							{
								OFFSET 55.098175 0.000000 0.000000
								CHANNELS 3 Xrotation Yrotation Zrotation
								JOINT mixamorig:LeftHandMiddle1
								{
									OFFSET 23.369751 0.000000 0.000000
									CHANNELS 3 Xrotation Yrotation Zrotation
									JOINT mixamorig:LeftHandMiddle2
									{
										OFFSET 6.378677 0.000000 0.000000
										CHANNELS 3 Xrotation Yrotation Zrotation
										JOINT mixamorig:LeftHandMiddle3
										{
											OFFSET 6.148331 0.000000 0.000000
											CHANNELS 3 Xrotation Yrotation Zrotation
											JOINT mixamorig:LeftHandMiddle4
											{
												OFFSET 6.582504 0.000000 0.000000
												CHANNELS 3 Xrotation Yrotation Zrotation
												End Site
												{
													OFFSET -1.168900 6.395691 1.028606
												}
											}
										}
									}
								}
								JOINT mixamorig:LeftHandThumb1
								{
									OFFSET 7.235672 -3.848206 5.434273
									CHANNELS 3 Xrotation Yrotation Zrotation
									JOINT mixamorig:LeftHandThumb2
									{
										OFFSET 6.568451 -3.792297 3.792300
										CHANNELS 3 Xrotation Yrotation Zrotation
										JOINT mixamorig:LeftHandThumb3
										{
											OFFSET 6.063080 -3.500519 3.500518
											CHANNELS 3 Xrotation Yrotation Zrotation
											JOINT mixamorig:LeftHandThumb4
											{
												OFFSET 4.793182 -2.767334 2.767349
												CHANNELS 3 Xrotation Yrotation Zrotation
												End Site
												{
													OFFSET 0.101639 6.054260 1.275483
												}
											}
										}
									}
								}
								JOINT mixamorig:LeftHandIndex1
								{
									OFFSET 23.101074 -0.309540 4.992809
									CHANNELS 3 Xrotation Yrotation Zrotation
									JOINT mixamorig:LeftHandIndex2
									{
										OFFSET 6.226883 0.000000 0.000000
										CHANNELS 3 Xrotation Yrotation Zrotation
										JOINT mixamorig:LeftHandIndex3
										{
											OFFSET 6.094330 0.000000 0.000000
											CHANNELS 3 Xrotation Yrotation Zrotation
											JOINT mixamorig:LeftHandIndex4
											{
												OFFSET 5.482605 0.000000 0.000000
												CHANNELS 3 Xrotation Yrotation Zrotation
												End Site
												{
													OFFSET -1.427902 5.233032 0.797164
												}
											}
										}
									}
								}
								JOINT mixamorig:LeftHandRing1
								{
									OFFSET 22.299240 0.021149 -3.964172
									CHANNELS 3 Xrotation Yrotation Zrotation
									JOINT mixamorig:LeftHandRing2
									{
										OFFSET 6.321869 0.000000 0.000000
										CHANNELS 3 Xrotation Yrotation Zrotation
										JOINT mixamorig:LeftHandRing3
										{
											OFFSET 5.899796 0.000000 0.000000
											CHANNELS 3 Xrotation Yrotation Zrotation
											JOINT mixamorig:LeftHandRing4
											{
												OFFSET 6.517899 0.000000 0.000000
												CHANNELS 3 Xrotation Yrotation Zrotation
												End Site
												{
													OFFSET -1.637299 6.232208 0.980890
												}
											}
										}
									}
								}
								JOINT mixamorig:LeftHandPinky1
								{
									OFFSET 20.463791 -0.302338 -8.562233
									CHANNELS 3 Xrotation Yrotation Zrotation
									JOINT mixamorig:LeftHandPinky2
									{
										OFFSET 6.908646 0.000000 0.000000
										CHANNELS 3 Xrotation Yrotation Zrotation
										JOINT mixamorig:LeftHandPinky3
										{
											OFFSET 4.622849 0.000000 0.000000
											CHANNELS 3 Xrotation Yrotation Zrotation
											JOINT mixamorig:LeftHandPinky4
											{
												OFFSET 5.216080 0.000000 0.000000
												CHANNELS 3 Xrotation Yrotation Zrotation
												End Site
												{
													OFFSET -0.606308 5.116241 0.814926
												}
											}
										}
									}
								}
							}
						}
					}
				}
				JOINT mixamorig:RightShoulder
				{
					OFFSET -12.001300 18.284088 1.348900
					CHANNELS 3 Xrotation Yrotation Zrotation
					JOINT mixamorig:RightArm
					{
						OFFSET -25.308500 -0.751312 -5.164599
						CHANNELS 3 Xrotation Yrotation Zrotation
						JOINT mixamorig:RightForeArm
						{
							OFFSET -54.684429 0.000000 0.000000
							CHANNELS 3 Xrotation Yrotation Zrotation
							JOINT mixamorig:RightHand
							{
								OFFSET -55.150291 0.000000 0.000000
								CHANNELS 3 Xrotation Yrotation Zrotation
								JOINT mixamorig:RightHandMiddle1
								{
									OFFSET -23.317566 0.000000 0.000000
									CHANNELS 3 Xrotation Yrotation Zrotation
									JOINT mixamorig:RightHandMiddle2
									{
										OFFSET -6.378403 0.000000 0.000000
										CHANNELS 3 Xrotation Yrotation Zrotation
										JOINT mixamorig:RightHandMiddle3
										{
											OFFSET -6.148193 0.000000 0.000000
											CHANNELS 3 Xrotation Yrotation Zrotation
											JOINT mixamorig:RightHandMiddle4
											{
												OFFSET -6.583389 0.000000 0.000000
												CHANNELS 3 Xrotation Yrotation Zrotation
												End Site
												{
													OFFSET 1.171692 6.395905 1.029786
												}
											}
										}
									}
								}
								JOINT mixamorig:RightHandThumb1
								{
									OFFSET -7.190521 -3.860474 5.435846
									CHANNELS 3 Xrotation Yrotation Zrotation
									JOINT mixamorig:RightHandThumb2
									{
										OFFSET -6.567429 -3.791718 3.791708
										CHANNELS 3 Xrotation Yrotation Zrotation
										JOINT mixamorig:RightHandThumb3
										{
											OFFSET -6.062469 -3.500153 3.500166
											CHANNELS 3 Xrotation Yrotation Zrotation
											JOINT mixamorig:RightHandThumb4
											{
												OFFSET -4.792618 -2.767029 2.767022
												CHANNELS 3 Xrotation Yrotation Zrotation
												End Site
												{
													OFFSET -0.100327 6.053253 1.276754
												}
											}
										}
									}
								}
								JOINT mixamorig:RightHandIndex1
								{
									OFFSET -23.048981 -0.310791 4.992554
									CHANNELS 3 Xrotation Yrotation Zrotation
									JOINT mixamorig:RightHandIndex2
									{
										OFFSET -6.227539 0.000000 0.000000
										CHANNELS 3 Xrotation Yrotation Zrotation
										JOINT mixamorig:RightHandIndex3
										{
											OFFSET -6.095047 0.000000 0.000000
											CHANNELS 3 Xrotation Yrotation Zrotation
											JOINT mixamorig:RightHandIndex4
											{
												OFFSET -5.484772 0.000000 0.000000
												CHANNELS 3 Xrotation Yrotation Zrotation
												End Site
												{
													OFFSET 1.420593 5.237305 0.797056
												}
											}
										}
									}
								}
								JOINT mixamorig:RightHandRing1
								{
									OFFSET -22.246323 0.020569 -3.963762
									CHANNELS 3 Xrotation Yrotation Zrotation
									JOINT mixamorig:RightHandRing2
									{
										OFFSET -6.322128 0.000000 0.000000
										CHANNELS 3 Xrotation Yrotation Zrotation
										JOINT mixamorig:RightHandRing3
										{
											OFFSET -5.900024 0.000000 0.000000
											CHANNELS 3 Xrotation Yrotation Zrotation
											JOINT mixamorig:RightHandRing4
											{
												OFFSET -6.518356 0.000000 0.000000
												CHANNELS 3 Xrotation Yrotation Zrotation
												End Site
												{
													OFFSET 1.636398 6.232697 0.982186
												}
											}
										}
									}
								}
								JOINT mixamorig:RightHandPinky1
								{
									OFFSET -20.411011 -0.303314 -8.561701
									CHANNELS 3 Xrotation Yrotation Zrotation
									JOINT mixamorig:RightHandPinky2
									{
										OFFSET -6.907349 0.000000 0.000000
										CHANNELS 3 Xrotation Yrotation Zrotation
										JOINT mixamorig:RightHandPinky3
										{
											OFFSET -4.623840 0.000000 0.000000
											CHANNELS 3 Xrotation Yrotation Zrotation
											JOINT mixamorig:RightHandPinky4
											{
												OFFSET -5.218353 0.000000 0.000000
												CHANNELS 3 Xrotation Yrotation Zrotation
												End Site
												{
													OFFSET 0.602097 5.118835 0.816273
												}
											}
										}
									}
								}
							}
						}
					}
				}
			}
		}
	}
	JOINT mixamorig:LeftUpLeg
	{
		OFFSET 18.168400 -13.561905 -0.039000
		CHANNELS 3 Xrotation Yrotation Zrotation
		JOINT mixamorig:LeftLeg
		{
			OFFSET 0.577358 -80.825211 -3.695000
			CHANNELS 3 Xrotation Yrotation Zrotation
			JOINT mixamorig:LeftFoot
			{
				OFFSET -0.577356 -83.370262 -6.520700
				CHANNELS 3 Xrotation Yrotation Zrotation
				JOINT mixamorig:LeftToeBase
				{
					OFFSET 0.750401 -20.798306 25.135401
					CHANNELS 3 Xrotation Yrotation Zrotation
					JOINT mixamorig:LeftToe_End
					{
						OFFSET -0.000500 0.001200 19.917799
						CHANNELS 3 Xrotation Yrotation Zrotation
						End Site
						{
							OFFSET 0.000000 19.917805 0.000000
						}
					}
				}
			}
		}
	}
	JOINT mixamorig:RightUpLeg
	{
		OFFSET -18.162500 -13.585098 -0.041000
		CHANNELS 3 Xrotation Yrotation Zrotation
		JOINT mixamorig:RightLeg
		{
			OFFSET -0.595024 -80.945297 -3.631900
			CHANNELS 3 Xrotation Yrotation Zrotation
			JOINT mixamorig:RightFoot
			{
				OFFSET 0.595024 -83.218193 -6.561200
				CHANNELS 3 Xrotation Yrotation Zrotation
				JOINT mixamorig:RightToeBase
				{
					OFFSET -0.753601 -20.807106 25.115000
					CHANNELS 3 Xrotation Yrotation Zrotation
					JOINT mixamorig:RightToe_End
					{
						OFFSET 0.000299 0.001700 19.918200
						CHANNELS 3 Xrotation Yrotation Zrotation
						End Site
						{
							OFFSET 0.000000 19.918203 0.000000
						}
					}
				}
			}
		}
	}
}
MOTION
Frames: 4
Frame Time: 0.033333
-107.916565 197.241150 5.505292 -0.044776 -25.500482 -1.406256 7.602044 0.807658 -2.052269 2.235052 0.241019 0.136236 2.234115 0.247200 0.134023 -3.754326 3.331434 -2.373691 -9.524777 15.045600 -6.856821 -0.000000 0.000000 0.000000 -0.000000 0.000000 0.000000 -0.000000 0.000000 0.000000 2.981991 -6.989902 -6.854611 -27.392373 -28.746876 -79.063668 -0.000005 -33.376717 -0.000014 20.546514 -9.039817 -4.481475 0.574782 4.751699 -24.071209 0.609744 2.604306 -26.350248 0.476306 2.315736 -23.242135 0.000001 -0.000000 -0.000000 -1.395949 1.756341 3.377287 6.494733 16.428886 1.706533 -7.491824 -1.347762 12.902598 -0.000002 0.000004 -0.000005 -0.534378 0.261055 -17.550507 0.608387 2.601564 -26.320361 0.488233 2.343294 -23.535683 -0.000002 0.000002 -0.000005 2.391801 8.821726 -23.793565 0.615543 2.615958 -26.477411 0.470609 2.302440 -23.100917 -0.000002 0.000003 0.000000 1.979710 11.200911 -23.603599 0.616206 2.617315 -26.492292 0.756677 2.881689 -29.419800 0.000001 0.000001 0.000004 4.044534 -1.935005 12.475603 -14.289972 -6.081840 64.776408 -0.000003 0.181112 -0.000001 60.199436 -1.747203 7.859761 0.432323 -4.134343 23.406145 0.486380 -2.073968 26.393934 0.379975 -1.844221 23.281972 -0.000001 -0.000001 -0.000000 -2.439335 0.243584 -2.763579 6.815518 -18.242692 -2.425235 -5.635298 -4.574320 -14.514499 0.000000 0.000001 0.000002 -0.574407 0.242064 16.805597 0.485290 -2.071772 26.364018 0.389484 -1.866157 23.575894 0.000001 -0.000002 0.000000 2.205696 -8.232526 23.197641 0.490998 -2.083247 26.521234 0.375430 -1.833618 23.140572 -0.000000 -0.000002 0.000003 1.770979 -10.609374 23.050217 0.491547 -2.084312 26.536140 0.603532 -2.294785 29.466806 -0.000001 0.000001 -0.000001 -16.028996 14.339393 13.045403 22.914479 -5.366252 -0.273362 -8.147386 0.793018 -6.300002 -0.041959 -0.000005 0.000000 0.000000 -0.000000 0.000000 -17.933898 -11.228472 -13.863657 16.398427 -2.827029 -0.292838 -1.848694 -0.684081 10.134113 -3.850832 -0.000020 0.000001 -0.000000 -0.000003 -0.000001 
-113.712593 196.946304 4.922938 -0.377195 -24.414385 -2.211631 7.948766 1.208884 -0.887007 2.350275 0.286531 -0.039153 2.350042 0.288571 -0.041239 -3.842048 3.193461 -2.272988 -9.511161 14.696487 -7.464365 -0.000000 0.000000 0.000001 -0.000000 0.000000 0.000001 -0.000000 0.000000 0.000001 3.027304 -6.389597 -6.897361 -26.064856 -27.384262 -78.731727 0.000003 -33.097987 0.000009 21.280561 -9.983748 -4.671107 0.574781 4.751693 -24.071211 0.609747 2.604314 -26.350252 0.476312 2.315728 -23.242135 0.000002 0.000001 0.000002 -1.395952 1.756331 3.377288 6.494731 16.428886 1.706529 -7.491826 -1.347762 12.902596 -0.000001 -0.000000 -0.000001 -0.534377 0.261055 -17.550504 0.608388 2.601564 -26.320361 0.488231 2.343289 -23.535679 -0.000001 0.000002 -0.000005 2.391803 8.821721 -23.793563 0.615542 2.615955 -26.477414 0.470611 2.302442 -23.100921 -0.000001 -0.000001 -0.000002 1.979707 11.200906 -23.603602 0.616207 2.617318 -26.492292 0.756682 2.881688 -29.419800 0.000003 0.000001 -0.000002 4.119204 -1.998654 13.221565 -13.875652 -5.189106 65.269506 -0.000004 0.072245 -0.000004 60.896321 -2.352153 7.766492 0.432330 -4.134344 23.406141 0.486385 -2.073963 26.393927 0.379975 -1.844218 23.281965 0.000003 -0.000001 -0.000000 -2.439334 0.243584 -2.763579 6.815516 -18.242694 -2.425233 -5.635303 -4.574316 -14.514497 -0.000001 -0.000002 -0.000003 -0.574403 0.242065 16.805600 0.485291 -2.071772 26.364020 0.389483 -1.866159 23.575895 0.000001 -0.000002 0.000000 2.205702 -8.232528 23.197643 0.491005 -2.083246 26.521230 0.375433 -1.833618 23.140577 0.000000 0.000001 0.000001 1.770980 -10.609372 23.050208 0.491551 -2.084320 26.536140 0.603528 -2.294786 29.466809 0.000000 0.000002 0.000002 -15.414644 13.648459 15.571154 21.895317 -6.514216 -0.331450 -7.779226 0.925437 -7.954856 0.168544 0.000658 -0.252184 -0.000000 -0.000001 0.000000 -18.371283 -11.058457 -12.006034 20.324065 -3.381620 -0.306373 -1.013692 -0.557759 10.701592 -3.772407 0.000002 -0.000002 0.000000 0.000002 -0.000000 
-119.600037 196.639893 4.200883 -0.781174 -23.018938 -3.460965 8.384445 1.356020 0.726241 2.486131 0.265965 -0.159292 2.487041 0.262918 -0.160607 -3.938637 3.047299 -2.052280 -9.522982 14.415876 -8.027169 -0.000000 -0.000000 0.000001 -0.000000 -0.000000 0.000001 -0.000000 -0.000000 0.000001 3.026356 -6.367710 -6.729254 -24.914814 -23.928419 -78.328527 0.000002 -32.030978 -0.000013 21.615409 -9.960117 -4.396016 0.574780 4.751693 -24.071212 0.609744 2.604311 -26.350250 0.476308 2.315736 -23.242137 -0.000003 -0.000000 0.000004 -1.395953 1.756331 3.377279 6.494728 16.428888 1.706533 -7.491822 -1.347765 12.902604 0.000003 0.000000 0.000000 -0.534379 0.261053 -17.550513 0.608388 2.601566 -26.320359 0.488231 2.343289 -23.535676 -0.000003 -0.000002 -0.000003 2.391803 8.821720 -23.793572 0.615542 2.615954 -26.477414 0.470609 2.302447 -23.100917 0.000001 -0.000003 0.000001 1.979711 11.200904 -23.603606 0.616206 2.617306 -26.492292 0.756682 2.881683 -29.419800 0.000004 0.000000 -0.000004 4.231571 -2.379236 13.932189 -13.242950 -3.211086 65.671026 0.000002 0.438992 0.000014 60.851692 -1.852106 7.356932 0.432323 -4.134346 23.406140 0.486377 -2.073962 26.393927 0.379979 -1.844221 23.281974 0.000002 0.000002 0.000003 -2.439337 0.243585 -2.763579 6.815518 -18.242687 -2.425235 -5.635302 -4.574319 -14.514502 -0.000005 -0.000001 -0.000002 -0.574411 0.242064 16.805595 0.485296 -2.071774 26.364023 0.389483 -1.866158 23.575899 0.000002 -0.000003 -0.000003 2.205694 -8.232528 23.197641 0.491000 -2.083252 26.521230 0.375430 -1.833617 23.140577 -0.000003 0.000001 0.000000 1.770976 -10.609373 23.050213 0.491552 -2.084318 26.536140 0.603524 -2.294784 29.466802 0.000001 0.000000 -0.000000 -15.501715 12.303264 18.433190 22.167143 -7.312957 -0.376966 -7.985995 0.767800 -7.705006 0.246957 0.001456 -0.373438 0.000000 0.000000 -0.000000 -17.467090 -11.431747 -9.201132 22.563993 -4.497433 -0.320415 -1.627437 -0.490043 9.854029 -2.164817 0.000011 0.000002 -0.000000 -0.000001 0.000000 
-125.587212 196.332855 3.400362 -1.175074 -21.496904 -4.726054 8.794206 1.340029 2.271868 2.612444 0.219533 -0.214031 2.614297 0.211758 -0.214410 -4.008342 2.881046 -1.695525 -9.448916 14.088423 -8.225060 -0.000000 -0.000000 -0.000000 -0.000000 -0.000000 -0.000000 -0.000000 -0.000000 -0.000000 3.012432 -6.484051 -6.247023 -24.116269 -18.832607 -78.167519 -0.000001 -30.140535 0.000012 22.442359 -8.705455 -3.208041 0.574779 4.751691 -24.071205 0.609746 2.604307 -26.350250 0.476307 2.315734 -23.242140 -0.000000 -0.000003 -0.000002 -1.395952 1.756332 3.377286 6.494730 16.428891 1.706529 -7.491825 -1.347762 12.902600 0.000002 0.000001 0.000002 -0.534378 0.261053 -17.550506 0.608390 2.601569 -26.320364 0.488231 2.343293 -23.535678 0.000002 0.000000 -0.000002 2.391802 8.821723 -23.793563 0.615541 2.615958 -26.477409 0.470609 2.302445 -23.100919 0.000000 0.000002 -0.000001 1.979711 11.200908 -23.603599 0.616207 2.617309 -26.492292 0.756682 2.881688 -29.419800 0.000002 0.000001 0.000002 4.373894 -2.894087 14.728835 -12.371368 -0.466109 65.741165 0.000003 1.356723 -0.000001 59.883718 -0.274575 6.795029 0.432325 -4.134346 23.406143 0.486383 -2.073967 26.393931 0.379977 -1.844225 23.281967 0.000004 0.000000 -0.000001 -2.439337 0.243583 -2.763580 6.815515 -18.242694 -2.425233 -5.635298 -4.574316 -14.514502 0.000001 0.000001 0.000001 -0.574403 0.242064 16.805595 0.485294 -2.071773 26.364020 0.389484 -1.866158 23.575902 0.000001 0.000000 -0.000002 2.205700 -8.232529 23.197643 0.490995 -2.083248 26.521230 0.375430 -1.833618 23.140572 0.000001 0.000001 -0.000001 1.770976 -10.609373 23.050218 0.491549 -2.084316 26.536137 0.603530 -2.294782 29.466802 0.000000 -0.000004 -0.000002 -16.438025 10.391259 21.328505 23.937523 -7.221726 -0.385604 -7.361055 0.372602 -7.138268 -0.462570 0.014528 -1.175740 -0.000000 0.000001 -0.000000 -16.283241 -11.712601 -6.043680 24.351872 -6.090962 -0.353762 -3.773652 -0.927329 8.357907 -1.199005 -0.000009 0.000003 0.000000 -0.000002 0.000000 
